<mxfile host="drawio-plugin" modified="2023-11-06T15:24:53.301Z" agent="5.0 (Windows NT 6.2; Win64; x64) AppleWebKit/537.36 (KHTML, like Gecko) Chrome/98.0.4758.102 Safari/537.36" etag="ECJ4gJemYGCvIo8xQuIJ" version="20.5.3" type="embed"><diagram id="C5RBs43oDa-KdzZeNtuy" name="Page-1"><mxGraphModel dx="1149" dy="512" grid="1" gridSize="10" guides="1" tooltips="1" connect="1" arrows="1" fold="1" page="1" pageScale="1" pageWidth="827" pageHeight="1169" math="0" shadow="0"><root><mxCell id="WIyWlLk6GJQsqaUBKTNV-0"/><mxCell id="WIyWlLk6GJQsqaUBKTNV-1" parent="WIyWlLk6GJQsqaUBKTNV-0"/><mxCell id="sHXD82jq5xAGlpNlW_et-0" value="&lt;div&gt;Game&lt;/div&gt;" style="swimlane;fontStyle=0;childLayout=stackLayout;horizontal=1;startSize=26;fillColor=none;horizontalStack=0;resizeParent=1;resizeParentMax=0;resizeLast=0;collapsible=1;marginBottom=0;whiteSpace=wrap;html=1;fontSize=16;" parent="WIyWlLk6GJQsqaUBKTNV-1" vertex="1"><mxGeometry x="300" y="190" width="140" height="52" as="geometry"/></mxCell><mxCell id="sHXD82jq5xAGlpNlW_et-1" value="+ field: type" style="text;strokeColor=none;fillColor=none;align=left;verticalAlign=top;spacingLeft=4;spacingRight=4;overflow=hidden;rotatable=0;points=[[0,0.5],[1,0.5]];portConstraint=eastwest;whiteSpace=wrap;html=1;fontSize=16;" parent="sHXD82jq5xAGlpNlW_et-0" vertex="1"><mxGeometry y="26" width="140" height="26" as="geometry"/></mxCell><mxCell id="sHXD82jq5xAGlpNlW_et-26" style="edgeStyle=none;curved=1;rounded=0;orthogonalLoop=1;jettySize=auto;html=1;fontSize=12;startSize=8;endSize=8;" parent="WIyWlLk6GJQsqaUBKTNV-1" source="sHXD82jq5xAGlpNlW_et-5" target="sHXD82jq5xAGlpNlW_et-0" edge="1"><mxGeometry relative="1" as="geometry"/></mxCell><mxCell id="sHXD82jq5xAGlpNlW_et-27" value="1" style="edgeLabel;html=1;align=center;verticalAlign=middle;resizable=0;points=[];fontSize=16;" parent="sHXD82jq5xAGlpNlW_et-26" vertex="1" connectable="0"><mxGeometry x="0.6102" y="-2" relative="1" as="geometry"><mxPoint as="offset"/></mxGeometry></mxCell><mxCell id="sHXD82jq5xAGlpNlW_et-28" value="1" style="edgeLabel;html=1;align=center;verticalAlign=middle;resizable=0;points=[];fontSize=16;" parent="sHXD82jq5xAGlpNlW_et-26" vertex="1" connectable="0"><mxGeometry x="-0.4363" y="-2" relative="1" as="geometry"><mxPoint as="offset"/></mxGeometry></mxCell><mxCell id="sHXD82jq5xAGlpNlW_et-5" value="&lt;div&gt;Wiki&lt;/div&gt;" style="swimlane;fontStyle=0;childLayout=stackLayout;horizontal=1;startSize=26;fillColor=none;horizontalStack=0;resizeParent=1;resizeParentMax=0;resizeLast=0;collapsible=1;marginBottom=0;whiteSpace=wrap;html=1;fontSize=16;" parent="WIyWlLk6GJQsqaUBKTNV-1" vertex="1"><mxGeometry x="300" y="380" width="140" height="52" as="geometry"/></mxCell><mxCell id="sHXD82jq5xAGlpNlW_et-6" value="+ field: type" style="text;strokeColor=none;fillColor=none;align=left;verticalAlign=top;spacingLeft=4;spacingRight=4;overflow=hidden;rotatable=0;points=[[0,0.5],[1,0.5]];portConstraint=eastwest;whiteSpace=wrap;html=1;fontSize=16;" parent="sHXD82jq5xAGlpNlW_et-5" vertex="1"><mxGeometry y="26" width="140" height="26" as="geometry"/></mxCell><mxCell id="sHXD82jq5xAGlpNlW_et-31" style="edgeStyle=none;curved=1;rounded=0;orthogonalLoop=1;jettySize=auto;html=1;fontSize=12;startSize=8;endSize=8;" parent="WIyWlLk6GJQsqaUBKTNV-1" source="sHXD82jq5xAGlpNlW_et-7" target="sHXD82jq5xAGlpNlW_et-0" edge="1"><mxGeometry relative="1" as="geometry"/></mxCell><mxCell id="sHXD82jq5xAGlpNlW_et-7" value="&lt;div&gt;ChatboxConverstation&lt;/div&gt;" style="swimlane;fontStyle=0;childLayout=stackLayout;horizontal=1;startSize=26;fillColor=none;horizontalStack=0;resizeParent=1;resizeParentMax=0;resizeLast=0;collapsible=1;marginBottom=0;whiteSpace=wrap;html=1;fontSize=16;" parent="WIyWlLk6GJQsqaUBKTNV-1" vertex="1"><mxGeometry x="34.5" y="280" width="231" height="52" as="geometry"/></mxCell><mxCell id="sHXD82jq5xAGlpNlW_et-8" value="+ field: type" style="text;strokeColor=none;fillColor=none;align=left;verticalAlign=top;spacingLeft=4;spacingRight=4;overflow=hidden;rotatable=0;points=[[0,0.5],[1,0.5]];portConstraint=eastwest;whiteSpace=wrap;html=1;fontSize=16;" parent="sHXD82jq5xAGlpNlW_et-7" vertex="1"><mxGeometry y="26" width="231" height="26" as="geometry"/></mxCell><mxCell id="sHXD82jq5xAGlpNlW_et-30" style="edgeStyle=none;curved=1;rounded=0;orthogonalLoop=1;jettySize=auto;html=1;fontSize=12;startSize=8;endSize=8;" parent="WIyWlLk6GJQsqaUBKTNV-1" source="sHXD82jq5xAGlpNlW_et-9" target="sHXD82jq5xAGlpNlW_et-0" edge="1"><mxGeometry relative="1" as="geometry"/></mxCell><mxCell id="sHXD82jq5xAGlpNlW_et-9" value="&lt;div&gt;User&lt;/div&gt;" style="swimlane;fontStyle=0;childLayout=stackLayout;horizontal=1;startSize=26;fillColor=none;horizontalStack=0;resizeParent=1;resizeParentMax=0;resizeLast=0;collapsible=1;marginBottom=0;whiteSpace=wrap;html=1;fontSize=16;" parent="WIyWlLk6GJQsqaUBKTNV-1" vertex="1"><mxGeometry x="80" y="90" width="140" height="120" as="geometry"/></mxCell><mxCell id="sHXD82jq5xAGlpNlW_et-10" value="Username" style="text;strokeColor=none;fillColor=none;align=left;verticalAlign=top;spacingLeft=4;spacingRight=4;overflow=hidden;rotatable=0;points=[[0,0.5],[1,0.5]];portConstraint=eastwest;whiteSpace=wrap;html=1;fontSize=16;" parent="sHXD82jq5xAGlpNlW_et-9" vertex="1"><mxGeometry y="26" width="140" height="94" as="geometry"/></mxCell><mxCell id="sHXD82jq5xAGlpNlW_et-11" value="&lt;div&gt;Account&lt;/div&gt;" style="swimlane;fontStyle=0;childLayout=stackLayout;horizontal=1;startSize=26;fillColor=none;horizontalStack=0;resizeParent=1;resizeParentMax=0;resizeLast=0;collapsible=1;marginBottom=0;whiteSpace=wrap;html=1;fontSize=16;" parent="WIyWlLk6GJQsqaUBKTNV-1" vertex="1"><mxGeometry x="390" y="90" width="140" height="52" as="geometry"/></mxCell><mxCell id="sHXD82jq5xAGlpNlW_et-12" value="+ field: type" style="text;strokeColor=none;fillColor=none;align=left;verticalAlign=top;spacingLeft=4;spacingRight=4;overflow=hidden;rotatable=0;points=[[0,0.5],[1,0.5]];portConstraint=eastwest;whiteSpace=wrap;html=1;fontSize=16;" parent="sHXD82jq5xAGlpNlW_et-11" vertex="1"><mxGeometry y="26" width="140" height="26" as="geometry"/></mxCell><mxCell id="sHXD82jq5xAGlpNlW_et-19" value="" style="endArrow=classic;html=1;rounded=0;fontSize=12;startSize=8;endSize=8;curved=1;" parent="WIyWlLk6GJQsqaUBKTNV-1" source="sHXD82jq5xAGlpNlW_et-9" target="sHXD82jq5xAGlpNlW_et-11" edge="1"><mxGeometry relative="1" as="geometry"><mxPoint x="260" y="250" as="sourcePoint"/><mxPoint x="460" y="200" as="targetPoint"/></mxGeometry></mxCell><mxCell id="sHXD82jq5xAGlpNlW_et-21" value="1" style="edgeLabel;resizable=0;html=1;align=left;verticalAlign=bottom;fontSize=16;" parent="sHXD82jq5xAGlpNlW_et-19" connectable="0" vertex="1"><mxGeometry x="-1" relative="1" as="geometry"/></mxCell><mxCell id="sHXD82jq5xAGlpNlW_et-22" value="1" style="edgeLabel;resizable=0;html=1;align=right;verticalAlign=bottom;fontSize=16;" parent="sHXD82jq5xAGlpNlW_et-19" connectable="0" vertex="1"><mxGeometry x="1" relative="1" as="geometry"><mxPoint x="-10" as="offset"/></mxGeometry></mxCell><mxCell id="sHXD82jq5xAGlpNlW_et-23" value="" style="endArrow=classic;html=1;rounded=0;fontSize=12;startSize=8;endSize=8;curved=1;" parent="WIyWlLk6GJQsqaUBKTNV-1" source="sHXD82jq5xAGlpNlW_et-9" target="sHXD82jq5xAGlpNlW_et-7" edge="1"><mxGeometry relative="1" as="geometry"><mxPoint x="260" y="250" as="sourcePoint"/><mxPoint x="420" y="250" as="targetPoint"/></mxGeometry></mxCell><mxCell id="sHXD82jq5xAGlpNlW_et-24" value="0..*" style="edgeLabel;resizable=0;html=1;align=center;verticalAlign=middle;fontSize=16;" parent="sHXD82jq5xAGlpNlW_et-23" connectable="0" vertex="1"><mxGeometry relative="1" as="geometry"><mxPoint y="34" as="offset"/></mxGeometry></mxCell><mxCell id="sHXD82jq5xAGlpNlW_et-25" value="&lt;div align=&quot;center&quot;&gt;1&lt;/div&gt;" style="edgeLabel;resizable=0;html=1;align=center;verticalAlign=bottom;fontSize=16;" parent="sHXD82jq5xAGlpNlW_et-23" connectable="0" vertex="1"><mxGeometry x="-1" relative="1" as="geometry"><mxPoint y="38" as="offset"/></mxGeometry></mxCell><mxCell id="sHXD82jq5xAGlpNlW_et-29" style="edgeStyle=none;curved=1;rounded=0;orthogonalLoop=1;jettySize=auto;html=1;exitX=0.5;exitY=0;exitDx=0;exitDy=0;fontSize=12;startSize=8;endSize=8;" parent="WIyWlLk6GJQsqaUBKTNV-1" source="sHXD82jq5xAGlpNlW_et-5" target="sHXD82jq5xAGlpNlW_et-5" edge="1"><mxGeometry relative="1" as="geometry"/></mxCell></root></mxGraphModel></diagram></mxfile>